<svg xmlns="http://www.w3.org/2000/svg" xmlns:xlink="http://www.w3.org/1999/xlink" width="35" height="25" viewBox="0 0 35 25">
  <defs>
    <clipPath id="clip-path">
      <rect id="Rectangle_9" data-name="Rectangle 9" width="35" height="25" rx="4" transform="translate(3924 2211)" fill="#fff"/>
    </clipPath>
  </defs>
  <g id="Mask_Group_2" data-name="Mask Group 2" transform="translate(-3924 -2211)" clip-path="url(#clip-path)">
    <g id="Group_13" data-name="Group 13" transform="translate(3924 2211)">
      <rect id="Rectangle_4" data-name="Rectangle 4" width="35" height="25" transform="translate(0)" fill="#016fd0"/>
      <path id="Path_3" data-name="Path 3" d="M1.644,352.565.193,355.939h.945l.268-.676H2.962l.266.676h.966l-1.45-3.374Zm.537.785.475,1.181h-.95Zm2.113,2.588v-3.374l1.343,0,.781,2.176.762-2.181H8.512v3.374H7.669v-2.486l-.894,2.486h-.74l-.9-2.486v2.486Zm4.8,0v-3.374h2.753v.755h-1.9v.577H11.8v.71H9.942v.6h1.9v.733Zm3.241-3.374v3.374h.844v-1.2h.355l1.011,1.2h1.031l-1.11-1.243a1.028,1.028,0,0,0,.925-1.036,1.091,1.091,0,0,0-1.179-1.095Zm.844.755h.964a.387.387,0,0,1,.4.355.381.381,0,0,1-.387.355h-.977Zm3.419,2.619h-.861v-3.374h.861Zm2.042,0h-.186A1.487,1.487,0,0,1,17,354.265a1.546,1.546,0,0,1,1.676-1.7h.932v.8h-.966a.812.812,0,0,0-.787.91.826.826,0,0,0,.91.928h.222Zm1.836-3.374-1.451,3.374h.945l.268-.676h1.557l.266.676h.966l-1.45-3.374Zm.537.785.475,1.181h-.95Zm2.112,2.588v-3.374h1.073l1.369,2.12v-2.12H26.4v3.374H25.367l-1.4-2.176v2.176ZM6.337,361.843v-3.374H9.089v.755h-1.9v.577H9.045v.71H7.189v.6h1.9v.733Zm13.488,0v-3.374h2.753v.755h-1.9v.577h1.847v.71H20.677v.6h1.9v.733Zm-10.629,0,1.34-1.666-1.372-1.708h1.063l.817,1.056.82-1.056h1.021l-1.354,1.687,1.343,1.687H11.812l-.794-1.039-.774,1.039Zm3.778-3.374v3.374h.866v-1.066h.888a1.167,1.167,0,0,0,1.321-1.174,1.111,1.111,0,0,0-1.211-1.135Zm.866.763h.935a.381.381,0,0,1,.416.388.389.389,0,0,1-.419.388H13.84Zm2.575-.764v3.374h.844v-1.2h.355l1.011,1.2h1.031l-1.11-1.243a1.028,1.028,0,0,0,.925-1.036,1.091,1.091,0,0,0-1.179-1.095Zm.844.755h.964a.387.387,0,0,1,.4.355.381.381,0,0,1-.387.355h-.977Zm5.71,2.62v-.733h1.688c.25,0,.358-.135.358-.283s-.108-.285-.358-.285h-.763a.943.943,0,0,1-1.032-1.011c0-.541.338-1.063,1.324-1.063h1.643l-.355.759H24.052c-.272,0-.355.142-.355.279a.294.294,0,0,0,.311.294h.8a.926.926,0,0,1,1.06.968,1.012,1.012,0,0,1-1.1,1.074Zm3.1,0v-.733h1.688c.25,0,.358-.135.358-.283s-.108-.285-.358-.285H26.99a.943.943,0,0,1-1.032-1.011c0-.541.338-1.063,1.324-1.063h1.643l-.355.759H27.148c-.272,0-.355.142-.355.279a.294.294,0,0,0,.311.294h.8a.926.926,0,0,1,1.06.968,1.012,1.012,0,0,1-1.1,1.074Z" transform="translate(2.98 -344.734)" fill="#fff"/>
    </g>
  </g>
</svg>
