<svg xmlns="http://www.w3.org/2000/svg" xmlns:xlink="http://www.w3.org/1999/xlink" width="260" height="25" viewBox="0 0 260 25">
  <defs>
    <clipPath id="clip-path">
      <rect id="Rectangle_8" data-name="Rectangle 8" width="35" height="25" rx="4" transform="translate(3924 2110)" fill="#fff"/>
    </clipPath>
    <clipPath id="clip-path-2">
      <rect id="Rectangle_12" data-name="Rectangle 12" width="35" height="25" rx="4" transform="translate(3924 2510)" fill="#fff"/>
    </clipPath>
    <clipPath id="clip-path-3">
      <rect id="Rectangle_9" data-name="Rectangle 9" width="35" height="25" rx="4" transform="translate(3924 2211)" fill="#fff"/>
    </clipPath>
    <clipPath id="clip-path-4">
      <rect id="Rectangle_10" data-name="Rectangle 10" width="35" height="25" rx="4" transform="translate(3924 2311)" fill="#fff"/>
    </clipPath>
    <radialGradient id="radial-gradient" cx="0.5" cy="0.499" fx="0.6353516578674316" fy="0.36411818861961365" r="0.5" gradientTransform="matrix(1, 0, 0, -1, 0, 1.018)" gradientUnits="objectBoundingBox">
      <stop offset="0" stop-color="#ff8330"/>
      <stop offset="1" stop-color="#fff"/>
    </radialGradient>
    <clipPath id="clip-path-5">
      <rect id="Rectangle_11" data-name="Rectangle 11" width="35" height="25" rx="4" transform="translate(3924 2409)" fill="#fff"/>
    </clipPath>
    <clipPath id="clip-path-6">
      <rect id="Rectangle_14" data-name="Rectangle 14" width="35" height="25" rx="4" transform="translate(4171 2233)" fill="#fff"/>
    </clipPath>
    <linearGradient id="linear-gradient" x1="-0.749" y1="0.885" x2="1.828" y2="0.885" gradientUnits="objectBoundingBox">
      <stop offset="0" stop-color="#007940"/>
      <stop offset="0.228" stop-color="#00873f"/>
      <stop offset="0.743" stop-color="#40a737"/>
      <stop offset="1" stop-color="#5cb531"/>
    </linearGradient>
    <linearGradient id="linear-gradient-2" x1="-0.818" y1="1.102" x2="1.995" y2="1.102" xlink:href="#linear-gradient"/>
    <clipPath id="clip-Cards">
      <rect width="260" height="25"/>
    </clipPath>
  </defs>
  <g id="Cards" clip-path="url(#clip-Cards)">
    <g id="Mask_Group_1" data-name="Mask Group 1" transform="translate(-3924 -2110)" clip-path="url(#clip-path)">
      <g id="Group_10" data-name="Group 10" transform="translate(3924 2110)">
        <g id="Group_4" data-name="Group 4" transform="translate(0 0)">
          <rect id="Rectangle_3" data-name="Rectangle 3" width="34.618" height="24.722" transform="translate(0 0.095)" fill="#fff"/>
          <g id="Group_1" data-name="Group 1" transform="translate(0)">
            <path id="path3065" d="M120.569,132.887h34.923v4.937H120.569Z" transform="translate(-120.569 -132.887)" fill="#0061b2" fill-rule="evenodd"/>
            <path id="path3069" d="M120.569,1389.74h34.923v4.937H120.569Z" transform="translate(-120.569 -1369.789)" fill="#fdb827" fill-rule="evenodd"/>
            <path id="path3071" d="M474.091,631.781v0h-1.436v.243h0c1.12.036,1.455.563,1.579,1.176l.661,6.551h2.174l4.644-7.973H479.54l-2.791,4.792-.483-4.792Z" transform="translate(-468.286 -623.405)" fill="#0061b2" fill-rule="evenodd"/>
            <path id="rect3086" d="M1089.754,631.4h2.11l-2.587,7.981h-2.11Z" transform="translate(-1075.169 -623.029)" fill="#0061b2" fill-rule="evenodd"/>
            <path id="path3089" d="M1907.421,644.219l-4.08,7.822h2.289l.6-1.194h2.657l.091,1.194h2.11l-.6-7.822h-3.065Zm1.109,2.007.253,3.307h-1.9Z" transform="translate(-1881.212 -635.688)" fill="#0061b2" fill-rule="evenodd"/>
            <path id="path3105" d="M1380.592,625.513a2.889,2.889,0,0,1,3.125-2.13,4.926,4.926,0,0,1,2.886,1.035l-1.254,1.314a3.605,3.605,0,0,0-1.473-.716c-.722,0-1.048.264-1.115.7-.133.863,2.943,1.392,2.846,3.4a3.067,3.067,0,0,1-3.045,2.647,5.914,5.914,0,0,1-3.563-.955l1.075-1.533a3.775,3.775,0,0,0,2.09.816c.683-.032,1.21-.293,1.174-.756C1383.258,628.285,1380.019,627.8,1380.592,625.513Z" transform="translate(-1363.38 -615.111)" fill="#0061b2"/>
          </g>
        </g>
      </g>
    </g>
    <g id="Mask_Group_5" data-name="Mask Group 5" transform="translate(-3879 -2510)" clip-path="url(#clip-path-2)">
      <g id="Group_12" data-name="Group 12" transform="translate(3923.445 2509.722)">
        <rect id="Rectangle_2" data-name="Rectangle 2" width="36" height="25" transform="translate(-0.444 0.278)"/>
        <g id="XMLID_328_" transform="translate(7.008 5.96)">
          <rect id="rect19" width="6.006" height="10.791" transform="translate(8.103 1.468)" fill="#ff5f00"/>
          <path id="XMLID_330_" d="M2907.219,2246.366a6.882,6.882,0,0,1,2.612-5.4,6.864,6.864,0,1,0,0,10.792A6.853,6.853,0,0,1,2907.219,2246.366Z" transform="translate(-2898.734 -2239.502)" fill="#eb001b"/>
          <path id="path22" d="M3410.263,2246.366a6.857,6.857,0,0,1-11.1,5.4,6.879,6.879,0,0,0,0-10.792,6.857,6.857,0,0,1,11.1,5.4Z" transform="translate(-3388.052 -2239.502)" fill="#f79e1b"/>
        </g>
      </g>
    </g>
    <g id="Mask_Group_2" data-name="Mask Group 2" transform="translate(-3834 -2211)" clip-path="url(#clip-path-3)">
      <g id="Group_13" data-name="Group 13" transform="translate(3924 2211)">
        <rect id="Rectangle_4" data-name="Rectangle 4" width="35" height="25" transform="translate(0)" fill="#016fd0"/>
        <path id="Path_3" data-name="Path 3" d="M1.644,352.565.193,355.939h.945l.268-.676H2.962l.266.676h.966l-1.45-3.374Zm.537.785.475,1.181h-.95Zm2.113,2.588v-3.374l1.343,0,.781,2.176.762-2.181H8.512v3.374H7.669v-2.486l-.894,2.486h-.74l-.9-2.486v2.486Zm4.8,0v-3.374h2.753v.755h-1.9v.577H11.8v.71H9.942v.6h1.9v.733Zm3.241-3.374v3.374h.844v-1.2h.355l1.011,1.2h1.031l-1.11-1.243a1.028,1.028,0,0,0,.925-1.036,1.091,1.091,0,0,0-1.179-1.095Zm.844.755h.964a.387.387,0,0,1,.4.355.381.381,0,0,1-.387.355h-.977Zm3.419,2.619h-.861v-3.374h.861Zm2.042,0h-.186A1.487,1.487,0,0,1,17,354.265a1.546,1.546,0,0,1,1.676-1.7h.932v.8h-.966a.812.812,0,0,0-.787.91.826.826,0,0,0,.91.928h.222Zm1.836-3.374-1.451,3.374h.945l.268-.676h1.557l.266.676h.966l-1.45-3.374Zm.537.785.475,1.181h-.95Zm2.112,2.588v-3.374h1.073l1.369,2.12v-2.12H26.4v3.374H25.367l-1.4-2.176v2.176ZM6.337,361.843v-3.374H9.089v.755h-1.9v.577H9.045v.71H7.189v.6h1.9v.733Zm13.488,0v-3.374h2.753v.755h-1.9v.577h1.847v.71H20.677v.6h1.9v.733Zm-10.629,0,1.34-1.666-1.372-1.708h1.063l.817,1.056.82-1.056h1.021l-1.354,1.687,1.343,1.687H11.812l-.794-1.039-.774,1.039Zm3.778-3.374v3.374h.866v-1.066h.888a1.167,1.167,0,0,0,1.321-1.174,1.111,1.111,0,0,0-1.211-1.135Zm.866.763h.935a.381.381,0,0,1,.416.388.389.389,0,0,1-.419.388H13.84Zm2.575-.764v3.374h.844v-1.2h.355l1.011,1.2h1.031l-1.11-1.243a1.028,1.028,0,0,0,.925-1.036,1.091,1.091,0,0,0-1.179-1.095Zm.844.755h.964a.387.387,0,0,1,.4.355.381.381,0,0,1-.387.355h-.977Zm5.71,2.62v-.733h1.688c.25,0,.358-.135.358-.283s-.108-.285-.358-.285h-.763a.943.943,0,0,1-1.032-1.011c0-.541.338-1.063,1.324-1.063h1.643l-.355.759H24.052c-.272,0-.355.142-.355.279a.294.294,0,0,0,.311.294h.8a.926.926,0,0,1,1.06.968,1.012,1.012,0,0,1-1.1,1.074Zm3.1,0v-.733h1.688c.25,0,.358-.135.358-.283s-.108-.285-.358-.285H26.99a.943.943,0,0,1-1.032-1.011c0-.541.338-1.063,1.324-1.063h1.643l-.355.759H27.148c-.272,0-.355.142-.355.279a.294.294,0,0,0,.311.294h.8a.926.926,0,0,1,1.06.968,1.012,1.012,0,0,1-1.1,1.074Z" transform="translate(2.98 -344.734)" fill="#fff"/>
      </g>
    </g>
    <g id="Mask_Group_3" data-name="Mask Group 3" transform="translate(-3789 -2311)" clip-path="url(#clip-path-4)">
      <g id="Group_11" data-name="Group 11" transform="translate(3924 2311)">
        <g id="Group_2" data-name="Group 2" transform="translate(0 0)">
          <rect id="Rectangle_5" data-name="Rectangle 5" width="35" height="25" fill="#ff8a0e"/>
          <g id="DiscoverCard1" transform="translate(4.307 9.926)">
            <g id="layer1" transform="translate(12.571 1.387)">
              <path id="path3194" d="M415.115,51.208a1.908,1.908,0,1,1-1.908-1.908A1.908,1.908,0,0,1,415.115,51.208Z" transform="translate(-411.3 -49.3)" fill="url(#radial-gradient)"/>
            </g>
            <g id="text2903" transform="translate(0 -0.426)">
              <text id="Disc" transform="translate(0 5)" fill="#fff" font-size="5" font-family="Verdana-Bold, Verdana" font-weight="700"><tspan x="0" y="0">Disc</tspan></text>
            </g>
            <g id="text2911" transform="translate(16.958 -0.426)">
              <text id="ver" transform="translate(0 5)" fill="#fff" font-size="5" font-family="Verdana-Bold, Verdana" font-weight="700"><tspan x="0" y="0">ver</tspan></text>
            </g>
          </g>
        </g>
      </g>
    </g>
    <g id="Mask_Group_4" data-name="Mask Group 4" transform="translate(-3744 -2409)" clip-path="url(#clip-path-5)">
      <g id="Group_14" data-name="Group 14" transform="translate(3923.167 2408.444)">
        <rect id="Rectangle_6" data-name="Rectangle 6" width="37" height="27" transform="translate(-0.166 -0.444)" fill="#016fd0"/>
        <path id="Path_4" data-name="Path 4" d="M11.222,15.176c4.148.02,7.934-3.383,7.934-7.522A7.749,7.749,0,0,0,11.222,0H7.652A7.485,7.485,0,0,0,0,7.654a7.6,7.6,0,0,0,7.652,7.522Z" transform="translate(8.814 5.614)" fill="#0079be"/>
        <path id="Path_5" data-name="Path 5" d="M31.016,20.83a6.947,6.947,0,1,0,6.946,6.947A6.947,6.947,0,0,0,31.016,20.83Zm-4.4,6.947h0a4.41,4.41,0,0,1,2.826-4.109v8.218A4.408,4.408,0,0,1,26.614,27.777Zm5.977,4.11h0v-8.22a4.4,4.4,0,0,1,0,8.22Z" transform="translate(-14.532 -14.588)" fill="#fff"/>
        <path id="Path_43" data-name="Path 43" d="M11.222,15.176c4.148.02,7.934-3.383,7.934-7.522A7.749,7.749,0,0,0,11.222,0H7.652A7.485,7.485,0,0,0,0,7.654a7.6,7.6,0,0,0,7.652,7.522Z" transform="translate(8.814 5.614)" fill="#fff"/>
        <path id="Path_44" data-name="Path 44" d="M31.016,20.83a6.947,6.947,0,1,0,6.946,6.947A6.947,6.947,0,0,0,31.016,20.83Zm-4.4,6.947h0a4.41,4.41,0,0,1,2.826-4.109v8.218A4.408,4.408,0,0,1,26.614,27.777Zm5.977,4.11h0v-8.22a4.4,4.4,0,0,1,0,8.22Z" transform="translate(-14.532 -14.588)" fill="#0079be"/>
      </g>
    </g>
    <g id="Mask_Group_6" data-name="Mask Group 6" transform="translate(-3946 -2233)" clip-path="url(#clip-path-6)">
      <g id="Group_15" data-name="Group 15" transform="translate(4170.722 2233)">
        <rect id="Rectangle_7" data-name="Rectangle 7" width="35" height="25" transform="translate(0.278)" fill="#fff"/>
        <g id="g6321" transform="translate(3.926 2.02)">
          <g id="g6323" transform="translate(0 0)">
            <path id="path6325" d="M46.571,31.014A4.3,4.3,0,0,1,42.281,35.3H18.944V18.315a4.3,4.3,0,0,1,4.289-4.289H46.571Z" transform="translate(-18.944 -14.026)" fill="#fff"/>
            <g id="g6327" transform="translate(19.542 1.435)">
              <path id="path6338" d="M234.976,134.41h1.773c.051,0,.169-.017.22-.017a.791.791,0,0,0,.625-.794.82.82,0,0,0-.625-.794.892.892,0,0,0-.22-.017h-1.773Z" transform="translate(-233.456 -123.214)" fill="url(#linear-gradient)"/>
              <path id="path6349" d="M221.673,29.509a3.074,3.074,0,0,0-3.073,3.073v3.192h4.34a1.737,1.737,0,0,1,.3.017c.979.051,1.706.557,1.706,1.435a1.436,1.436,0,0,1-1.4,1.4v.034c1,.068,1.756.625,1.756,1.486,0,.929-.844,1.537-1.959,1.537h-4.762v6.248h4.509a3.074,3.074,0,0,0,3.073-3.073V29.509h-4.492Z" transform="translate(-218.582 -29.509)" fill="#31af45"/>
              <path id="path6360" d="M237.374,107.666a.718.718,0,0,0-.625-.726c-.034,0-.118-.017-.169-.017h-1.6v1.486h1.6a.471.471,0,0,0,.169-.017A.718.718,0,0,0,237.374,107.666Z" transform="translate(-233.456 -99.746)" fill="url(#linear-gradient-2)"/>
            </g>
            <path id="path6371" d="M38.428,29.509a3.074,3.074,0,0,0-3.073,3.073v7.582a6.078,6.078,0,0,0,2.651.692,1.471,1.471,0,0,0,1.638-1.52v-3.58h2.634V39.32c0,1.385-.861,2.516-3.783,2.516a12.963,12.963,0,0,1-3.158-.388v6.468h4.509a3.074,3.074,0,0,0,3.073-3.073V29.509H38.428Z" transform="translate(-34.818 -28.073)" fill="#015eb1"/>
            <path id="path6384" d="M130.215,29.509a3.074,3.074,0,0,0-3.073,3.073V36.6c.777-.659,2.128-1.081,4.306-.979a13.7,13.7,0,0,1,2.415.372v1.3a5.846,5.846,0,0,0-2.33-.675c-1.655-.118-2.651.692-2.651,2.111,0,1.435,1,2.246,2.651,2.111a6.133,6.133,0,0,0,2.33-.675v1.3a13.376,13.376,0,0,1-2.415.372c-2.178.1-3.529-.321-4.306-.979v7.092h4.509a3.074,3.074,0,0,0,3.073-3.073V29.509h-4.509Z" transform="translate(-117.111 -28.073)" fill="#cc0e2d"/>
          </g>
        </g>
      </g>
    </g>
  </g>
</svg>
