<svg xmlns="http://www.w3.org/2000/svg" xmlns:xlink="http://www.w3.org/1999/xlink" width="35" height="25" viewBox="0 0 35 25">
  <defs>
    <clipPath id="clip-path">
      <rect id="Rectangle_29" data-name="Rectangle 29" width="35" height="25" rx="4" transform="translate(2480 1215)" fill="#fff"/>
    </clipPath>
  </defs>
  <g id="Mask_Group_13" data-name="Mask Group 13" transform="translate(-2480 -1215)" clip-path="url(#clip-path)">
    <g id="Group_21" data-name="Group 21" transform="translate(729.992 677.672)">
      <path id="Path_51" data-name="Path 51" d="M1789.751,629.956c0,4.454.016,8.908,0,13.362a2.543,2.543,0,0,1-2.727,2.72q-18,.01-36,0a2.571,2.571,0,0,1-2.729-2.78c-.012-4.437,0-8.874,0-13.311.244-.229.551-.169.838-.169,2.227-.006,4.454,0,6.682,0q16.445,0,32.891,0C1789.062,629.779,1789.442,629.679,1789.751,629.956Z" transform="translate(-0.041 -83.297)" fill="#00a7fe"/>
      <path id="Path_52" data-name="Path 52" d="M1789.767,585.175l-40.726,0c-.242,0-.484,0-.725-.007l-.006-5.1a.546.546,0,0,1,.488-.241c.207-.017.414-.012.621-.012q19.648,0,39.3,0c.353,0,.733-.091,1.04.187a14.061,14.061,0,0,1,.048,2.252C1789.8,583.227,1789.865,584.2,1789.767,585.175Z" transform="translate(-0.056 -38.516)" fill="#0b6fa1"/>
      <path id="Path_53" data-name="Path 53" d="M1789.7,541.485c-.207,0-.414-.01-.622-.01q-20.055,0-40.109,0a1.5,1.5,0,0,0-.714.072c0-.656-.016-1.312,0-1.968a2.63,2.63,0,0,1,2.736-2.75c.1,0,.207,0,.311,0q17.688,0,35.376,0a3.008,3.008,0,0,1,2.207.7,2.356,2.356,0,0,1,.811,1.676C1789.714,539.967,1789.7,540.726,1789.7,541.485Z" fill="#00a7fe"/>
      <path id="Path_54" data-name="Path 54" d="M1768.865,656.666c3.412,0,6.823.006,10.235-.009.346,0,.5.082.469.585-.036.548-.016,1.1-.005,1.656.005.262-.055.392-.268.361a1.629,1.629,0,0,0-.238,0h-20.431c-.5,0-.5,0-.5-.674,0-.466.018-.934-.005-1.4-.021-.4.07-.536.393-.529,1.23.025,2.46.01,3.689.01Z" transform="translate(-5.607 -107.403)" fill="#e4e4e4"/>
      <path id="Path_55" data-name="Path 55" d="M2051.712,656.685c1.07,0,2.139.008,3.209-.006.265,0,.379.073.365.43-.024.6-.015,1.207,0,1.81,0,.264-.063.362-.288.361q-3.315-.012-6.629,0c-.231,0-.286-.117-.282-.372.011-.586.018-1.173,0-1.759-.013-.357.077-.478.378-.472C2049.545,656.7,2050.628,656.685,2051.712,656.685Z" transform="translate(-272.745 -107.422)" fill="#e4e4e4"/>
      <path id="Path_56" data-name="Path 56" d="M1763.267,736.641c1.535,0,3.07.012,4.6-.008.434-.006.62.073.591.481a15.13,15.13,0,0,0,0,1.707c.012.306-.086.42-.47.419q-4.7-.018-9.391,0c-.384,0-.483-.117-.471-.423a15.923,15.923,0,0,0,0-1.655c-.025-.4.1-.54.6-.531C1760.237,736.659,1761.753,736.641,1763.267,736.641Z" transform="translate(-5.614 -181.084)" fill="#e4e4e4"/>
    </g>
  </g>
</svg>
