<svg xmlns="http://www.w3.org/2000/svg" xmlns:xlink="http://www.w3.org/1999/xlink" width="35" height="25" viewBox="0 0 35 25">
  <defs>
    <clipPath id="clip-path">
      <rect id="Rectangle_14" data-name="Rectangle 14" width="35" height="25" rx="4" transform="translate(4171 2233)" fill="#fff"/>
    </clipPath>
    <linearGradient id="linear-gradient" x1="-0.749" y1="0.885" x2="1.828" y2="0.885" gradientUnits="objectBoundingBox">
      <stop offset="0" stop-color="#007940"/>
      <stop offset="0.228" stop-color="#00873f"/>
      <stop offset="0.743" stop-color="#40a737"/>
      <stop offset="1" stop-color="#5cb531"/>
    </linearGradient>
    <linearGradient id="linear-gradient-2" x1="-0.818" y1="1.102" x2="1.995" y2="1.102" xlink:href="#linear-gradient"/>
  </defs>
  <g id="Mask_Group_6" data-name="Mask Group 6" transform="translate(-4171 -2233)" clip-path="url(#clip-path)">
    <g id="Group_15" data-name="Group 15" transform="translate(4170.722 2233)">
      <rect id="Rectangle_7" data-name="Rectangle 7" width="35" height="25" transform="translate(0.278)" fill="#fff"/>
      <g id="g6321" transform="translate(3.926 2.02)">
        <g id="g6323" transform="translate(0 0)">
          <path id="path6325" d="M46.571,31.014A4.3,4.3,0,0,1,42.281,35.3H18.944V18.315a4.3,4.3,0,0,1,4.289-4.289H46.571Z" transform="translate(-18.944 -14.026)" fill="#fff"/>
          <g id="g6327" transform="translate(19.542 1.435)">
            <path id="path6338" d="M234.976,134.41h1.773c.051,0,.169-.017.22-.017a.791.791,0,0,0,.625-.794.82.82,0,0,0-.625-.794.892.892,0,0,0-.22-.017h-1.773Z" transform="translate(-233.456 -123.214)" fill="url(#linear-gradient)"/>
            <path id="path6349" d="M221.673,29.509a3.074,3.074,0,0,0-3.073,3.073v3.192h4.34a1.737,1.737,0,0,1,.3.017c.979.051,1.706.557,1.706,1.435a1.436,1.436,0,0,1-1.4,1.4v.034c1,.068,1.756.625,1.756,1.486,0,.929-.844,1.537-1.959,1.537h-4.762v6.248h4.509a3.074,3.074,0,0,0,3.073-3.073V29.509h-4.492Z" transform="translate(-218.582 -29.509)" fill="#31af45"/>
            <path id="path6360" d="M237.374,107.666a.718.718,0,0,0-.625-.726c-.034,0-.118-.017-.169-.017h-1.6v1.486h1.6a.471.471,0,0,0,.169-.017A.718.718,0,0,0,237.374,107.666Z" transform="translate(-233.456 -99.746)" fill="url(#linear-gradient-2)"/>
          </g>
          <path id="path6371" d="M38.428,29.509a3.074,3.074,0,0,0-3.073,3.073v7.582a6.078,6.078,0,0,0,2.651.692,1.471,1.471,0,0,0,1.638-1.52v-3.58h2.634V39.32c0,1.385-.861,2.516-3.783,2.516a12.963,12.963,0,0,1-3.158-.388v6.468h4.509a3.074,3.074,0,0,0,3.073-3.073V29.509H38.428Z" transform="translate(-34.818 -28.073)" fill="#015eb1"/>
          <path id="path6384" d="M130.215,29.509a3.074,3.074,0,0,0-3.073,3.073V36.6c.777-.659,2.128-1.081,4.306-.979a13.7,13.7,0,0,1,2.415.372v1.3a5.846,5.846,0,0,0-2.33-.675c-1.655-.118-2.651.692-2.651,2.111,0,1.435,1,2.246,2.651,2.111a6.133,6.133,0,0,0,2.33-.675v1.3a13.376,13.376,0,0,1-2.415.372c-2.178.1-3.529-.321-4.306-.979v7.092h4.509a3.074,3.074,0,0,0,3.073-3.073V29.509h-4.509Z" transform="translate(-117.111 -28.073)" fill="#cc0e2d"/>
        </g>
      </g>
    </g>
  </g>
</svg>
